<svg width="128" height="128" viewBox="0 0 128 128" fill="none" xmlns="http://www.w3.org/2000/svg">
    <g clip-path="url(#clip0_10_41)">
        <circle cx="64" cy="64" r="64" fill="#516676"/>
        <path d="M32.025 106L56.345 12.56H71.833L96.025 106H84.377L78.233 81.168H49.945L43.801 106H32.025ZM52.249 71.44H75.801L68.633 42.64C67.2677 37.1787 66.201 32.6133 65.433 28.944C64.665 25.2747 64.1957 22.8853 64.025 21.776C63.8543 22.8853 63.385 25.2747 62.617 28.944C61.849 32.6133 60.7823 37.136 59.417 42.512L52.249 71.44Z"
              fill="white"/>
        <path d="M32.025 106L29.6056 105.37L28.791 108.5H32.025V106ZM56.345 12.56V10.06H54.4124L53.9256 11.9303L56.345 12.56ZM71.833 12.56L74.2532 11.9334L73.7682 10.06H71.833V12.56ZM96.025 106V108.5H99.2547L98.4452 105.373L96.025 106ZM84.377 106L81.9502 106.6L82.4202 108.5H84.377V106ZM78.233 81.168L80.6598 80.5675L80.1898 78.668H78.233V81.168ZM49.945 81.168V78.668H47.9882L47.5182 80.5675L49.945 81.168ZM43.801 106V108.5H45.7578L46.2278 106.6L43.801 106ZM52.249 71.44L49.8224 70.8387L49.0539 73.94H52.249V71.44ZM75.801 71.44V73.94H78.9995L78.227 70.8362L75.801 71.44ZM68.633 42.64L71.059 42.0362L71.0584 42.0337L68.633 42.64ZM65.433 28.944L67.88 28.4318L67.88 28.4318L65.433 28.944ZM64.025 21.776L66.4959 21.3958H61.5541L64.025 21.776ZM62.617 28.944L60.17 28.4318L60.17 28.4318L62.617 28.944ZM59.417 42.512L56.9939 41.8966L56.9921 41.9037L56.9904 41.9107L59.417 42.512ZM34.4444 106.63L58.7644 13.1897L53.9256 11.9303L29.6056 105.37L34.4444 106.63ZM56.345 15.06H71.833V10.06H56.345V15.06ZM69.4128 13.1866L93.6048 106.627L98.4452 105.373L74.2532 11.9334L69.4128 13.1866ZM96.025 103.5H84.377V108.5H96.025V103.5ZM86.8038 105.4L80.6598 80.5675L75.8062 81.7684L81.9502 106.6L86.8038 105.4ZM78.233 78.668H49.945V83.668H78.233V78.668ZM47.5182 80.5675L41.3742 105.4L46.2278 106.6L52.3718 81.7684L47.5182 80.5675ZM43.801 103.5H32.025V108.5H43.801V103.5ZM52.249 73.94H75.801V68.94H52.249V73.94ZM78.227 70.8362L71.059 42.0362L66.207 43.2438L73.375 72.0438L78.227 70.8362ZM71.0584 42.0337C69.6974 36.5898 68.639 32.0583 67.88 28.4318L62.986 29.4562C63.763 33.1684 64.8379 37.7675 66.2076 43.2463L71.0584 42.0337ZM67.88 28.4318C67.1086 24.7463 66.6544 22.4261 66.4959 21.3958L61.5541 22.1561C61.7369 23.3445 62.2214 25.803 62.986 29.4562L67.88 28.4318ZM61.5541 21.3958C61.3956 22.4261 60.9414 24.7463 60.17 28.4318L65.064 29.4562C65.8286 25.803 66.3131 23.3445 66.4959 22.1561L61.5541 21.3958ZM60.17 28.4318C59.4118 32.0545 58.3543 36.5403 56.9939 41.8966L61.8401 43.1274C63.2104 37.7317 64.2862 33.1721 65.064 29.4562L60.17 28.4318ZM56.9904 41.9107L49.8224 70.8387L54.6756 72.0413L61.8436 43.1133L56.9904 41.9107Z"
              fill="white"/>
    </g>
    <defs>
        <clipPath id="clip0_10_41">
            <rect width="128" height="128" fill="white"/>
        </clipPath>
    </defs>
</svg>
