<svg width="128" height="128" viewBox="0 0 128 128" fill="none" xmlns="http://www.w3.org/2000/svg">
    <g clip-path="url(#clip0_10_41)">
        <circle cx="64" cy="64" r="64" fill="#516676"/>
        <path d="M39.7695 99L58.7695 26H70.8695L89.7695 99H80.6695L75.8695 79.6H53.7695L48.9695 99H39.7695ZM55.5695 72H73.9695L68.3695 49.5C67.3029 45.2333 66.4695 41.6667 65.8695 38.8C65.2695 35.9333 64.9029 34.0667 64.7695 33.2C64.6362 34.0667 64.2695 35.9333 63.6695 38.8C63.0695 41.6667 62.2362 45.2 61.1695 49.4L55.5695 72Z"
              fill="white"/>
        <path d="M39.7695 99L37.834 98.4962L37.1824 101H39.7695V99ZM58.7695 26V24H57.2234L56.834 25.4962L58.7695 26ZM70.8695 26L72.8057 25.4987L72.4177 24H70.8695V26ZM89.7695 99V101H92.3533L91.7057 98.4987L89.7695 99ZM80.6695 99L78.7281 99.4804L79.1041 101H80.6695V99ZM75.8695 79.6L77.811 79.1196L77.435 77.6H75.8695V79.6ZM53.7695 79.6V77.6H52.2041L51.8281 79.1196L53.7695 79.6ZM48.9695 99V101H50.535L50.911 99.4804L48.9695 99ZM55.5695 72L53.6282 71.519L53.0135 74H55.5695V72ZM73.9695 72V74H76.5283L75.9103 71.517L73.9695 72ZM68.3695 49.5L70.3103 49.017L70.3098 49.0149L68.3695 49.5ZM65.8695 38.8L67.8271 38.3903L67.8271 38.3903L65.8695 38.8ZM64.7695 33.2L66.7463 32.8959H62.7928L64.7695 33.2ZM63.6695 38.8L61.712 38.3903L61.712 38.3903L63.6695 38.8ZM61.1695 49.4L59.231 48.9077L59.2282 48.919L61.1695 49.4ZM41.705 99.5038L60.705 26.5038L56.834 25.4962L37.834 98.4962L41.705 99.5038ZM58.7695 28H70.8695V24H58.7695V28ZM68.9334 26.5013L87.8334 99.5013L91.7057 98.4987L72.8057 25.4987L68.9334 26.5013ZM89.7695 97H80.6695V101H89.7695V97ZM82.611 98.5196L77.811 79.1196L73.9281 80.0804L78.7281 99.4804L82.611 98.5196ZM75.8695 77.6H53.7695V81.6H75.8695V77.6ZM51.8281 79.1196L47.0281 98.5196L50.911 99.4804L55.711 80.0804L51.8281 79.1196ZM48.9695 97H39.7695V101H48.9695V97ZM55.5695 74H73.9695V70H55.5695V74ZM75.9103 71.517L70.3103 49.017L66.4287 49.983L72.0287 72.483L75.9103 71.517ZM70.3098 49.0149C69.2466 44.7622 68.4199 41.2226 67.8271 38.3903L63.912 39.2097C64.5191 42.1107 65.3591 45.7044 66.4292 49.9851L70.3098 49.0149ZM67.8271 38.3903C67.2244 35.5107 66.8699 33.6993 66.7463 32.8959L62.7928 33.5041C62.9359 34.434 63.3147 36.356 63.912 39.2097L67.8271 38.3903ZM62.7928 32.8959C62.6692 33.6993 62.3147 35.5107 61.712 38.3903L65.6271 39.2097C66.2244 36.356 66.6032 34.434 66.7463 33.5041L62.7928 32.8959ZM61.712 38.3903C61.1198 41.2196 60.2937 44.7235 59.2311 48.9077L63.108 49.8923C64.1787 45.6765 65.0193 42.1137 65.6271 39.2097L61.712 38.3903ZM59.2282 48.919L53.6282 71.519L57.5108 72.481L63.1108 49.881L59.2282 48.919Z"
              fill="white"/>
    </g>
    <defs>
        <clipPath id="clip0_10_41">
            <rect width="128" height="128" fill="white"/>
        </clipPath>
    </defs>
</svg>
